<svg width="19" height="13" viewBox="0 0 19 13" fill="none" xmlns="http://www.w3.org/2000/svg">
<path d="M17.4759 0H1.33478C0.598146 0 0 0.598145 0 1.33183V6.833C0 7.56964 0.598146 8.16778 1.33478 8.16778H4.66141V11.7567C4.66141 12.4137 5.19768 12.95 5.85476 12.95H12.9559C13.613 12.95 14.1492 12.4137 14.1492 11.7567V8.17073H17.4759C18.2125 8.17073 18.8106 7.57258 18.8106 6.83595V1.33478C18.8136 0.598146 18.2125 0 17.4759 0ZM5.41278 11.7596V4.68793H9.65873V12.1986H5.85476C5.61019 12.1986 5.41278 12.0012 5.41278 11.7596ZM11.5475 4.68793V12.1986H10.4101V4.68793H11.5475ZM12.9559 12.1986H12.2988V4.68793H13.3949V11.7596C13.3979 12.0012 13.2005 12.1986 12.9559 12.1986ZM18.0593 6.83595C18.0593 7.15712 17.797 7.41936 17.4759 7.41936H14.1492V4.68793H15.5842C15.7934 4.68793 15.9614 4.51998 15.9614 4.31077C15.9614 4.10157 15.7934 3.93362 15.5842 3.93362H3.22645C3.01725 3.93362 2.84929 4.10157 2.84929 4.31077C2.84929 4.51998 3.01725 4.68793 3.22645 4.68793H4.66141V7.41936H1.33478C1.01361 7.41936 0.751365 7.15712 0.751365 6.83595V1.33478C0.751365 1.01655 1.01361 0.754312 1.33478 0.754312H17.4788C17.8 0.754312 18.0622 1.01361 18.0622 1.33478V6.83595H18.0593Z" fill="#A1A1A1"/>
<path d="M17.4759 0H1.33478C0.598146 0 0 0.598145 0 1.33183V6.833C0 7.56964 0.598146 8.16778 1.33478 8.16778H4.66141V11.7567C4.66141 12.4137 5.19768 12.95 5.85476 12.95H12.9559C13.613 12.95 14.1492 12.4137 14.1492 11.7567V8.17073H17.4759C18.2125 8.17073 18.8106 7.57258 18.8106 6.83595V1.33478C18.8136 0.598146 18.2125 0 17.4759 0ZM5.41278 11.7596V4.68793H9.65873V12.1986H5.85476C5.61019 12.1986 5.41278 12.0012 5.41278 11.7596ZM11.5475 4.68793V12.1986H10.4101V4.68793H11.5475ZM12.9559 12.1986H12.2988V4.68793H13.3949V11.7596C13.3979 12.0012 13.2005 12.1986 12.9559 12.1986ZM18.0593 6.83595C18.0593 7.15712 17.797 7.41936 17.4759 7.41936H14.1492V4.68793H15.5842C15.7934 4.68793 15.9614 4.51998 15.9614 4.31077C15.9614 4.10157 15.7934 3.93362 15.5842 3.93362H3.22645C3.01725 3.93362 2.84929 4.10157 2.84929 4.31077C2.84929 4.51998 3.01725 4.68793 3.22645 4.68793H4.66141V7.41936H1.33478C1.01361 7.41936 0.751365 7.15712 0.751365 6.83595V1.33478C0.751365 1.01655 1.01361 0.754312 1.33478 0.754312H17.4788C17.8 0.754312 18.0622 1.01361 18.0622 1.33478V6.83595H18.0593Z" stroke="#A1A1A1"/>
</svg>
