<svg width="16" height="16" viewBox="0 0 16 16" fill="none" xmlns="http://www.w3.org/2000/svg">
<path fill-rule="evenodd" clip-rule="evenodd" d="M11.4145 3.44814C11.3255 1.52879 9.74163 3.41761e-05 7.80079 3.41761e-05C5.81269 -0.00852286 4.19053 1.59089 4.16896 3.57814H4.00625C1.79342 3.57814 0 5.37055 0 7.58216V11.995C0 14.2066 1.79342 15.999 4.00625 15.999H11.5938C13.8067 15.999 15.6001 14.2066 15.6001 11.995V7.58216C15.6001 5.37055 13.8067 3.57814 11.5938 3.57814H11.4175L11.4145 3.44814ZM10.2184 4.77736V6.04409L10.2239 6.12551C10.2636 6.41837 10.5146 6.64409 10.8184 6.64409C11.1498 6.64409 11.4184 6.37546 11.4184 6.04409V4.77736H11.5938C13.144 4.77736 14.4 6.03266 14.4 7.58137V11.9942C14.4 13.5429 13.144 14.7982 11.5938 14.7982H4.00619C2.45596 14.7982 1.19995 13.5429 1.19995 11.9942V7.58137C1.19995 6.03266 2.45596 4.77736 4.00619 4.77736H4.16877L4.16877 6.04409L4.17425 6.12551C4.21398 6.41837 4.46501 6.64409 4.76877 6.64409C5.10015 6.64409 5.36878 6.37546 5.36878 6.04409V4.77736H10.2184ZM10.2181 3.57814C10.1965 2.26101 9.12242 1.20004 7.79821 1.20003C6.50979 1.19449 5.45254 2.19633 5.37349 3.46308L5.36967 3.57814H10.2181Z" fill="#A1A1A1"/>
</svg>
