<svg width="66" height="70" viewBox="0 0 66 70" fill="none" xmlns="http://www.w3.org/2000/svg">
<path d="M53.4421 43.3004L62.2207 40.9601C63.8209 40.5321 65.4761 41.4791 65.8967 43.0727C66.3265 44.6663 65.3755 46.3055 63.7752 46.7334L60.7942 47.5257L62.3396 48.4181C63.7752 49.2377 64.269 51.068 63.4369 52.4977C62.6139 53.9274 60.7759 54.4192 59.3402 53.5905L57.7949 52.7072L58.5995 55.6758C59.0293 57.2694 58.0783 58.9085 56.4781 59.3365C54.8778 59.7645 53.2318 58.8175 52.802 57.2239L50.452 48.4819L36.0039 40.1769V56.7868L42.4324 63.1885C43.6028 64.3541 43.6028 66.2482 42.4324 67.4138C41.2619 68.5794 39.3599 68.5794 38.1894 67.4138L36.0039 65.2374V67.0131C36.0039 68.6614 34.6597 70 33.0046 70C31.3494 70 30.0052 68.6614 30.0052 67.0131V65.2374L27.8197 67.4138C26.6493 68.5794 24.7472 68.5794 23.5768 67.4138C22.4063 66.2482 22.4063 64.3541 23.5768 63.1885L30.0052 56.7868V40.1769L15.5572 48.4819L13.2071 57.2239C12.7773 58.8175 11.1313 59.7645 9.53108 59.3365C7.93082 58.9085 6.97981 57.2694 7.4096 55.6758L8.21429 52.7072L6.6689 53.5905C5.23324 54.4192 3.40438 53.9274 2.57224 52.4977C1.74011 51.068 2.2339 49.2468 3.66956 48.4181L5.21496 47.5257L2.22476 46.7334C0.624498 46.3055 -0.326509 44.6663 0.103274 43.0727C0.533058 41.4791 2.17903 40.5321 3.77929 40.9601L12.5578 43.3004L27.0059 34.9954L12.5578 26.6905L3.77929 29.0308C2.17903 29.4588 0.533058 28.5118 0.103274 26.9182C-0.326509 25.3246 0.624498 23.6854 2.22476 23.2574L5.21496 22.4652L3.66956 21.5728C2.24305 20.7532 1.74925 18.9229 2.57224 17.4932C3.39523 16.0635 5.23324 15.5717 6.6689 16.4004L8.21429 17.2928L7.4096 14.3242C6.97981 12.7306 7.93082 11.0915 9.53108 10.6635C11.1313 10.2355 12.7773 11.1825 13.2071 12.7761L15.5572 21.5181L30.0052 29.8231V13.2132L23.5768 6.8115C22.4063 5.6459 22.4063 3.75179 23.5768 2.58618C24.7472 1.42058 26.6493 1.42058 27.8197 2.58618L30.0052 4.76259V2.98686C30.0052 1.33862 31.3494 0 33.0046 0C34.6597 0 36.0039 1.33862 36.0039 2.98686V4.76259L38.1894 2.58618C39.3599 1.42058 41.2619 1.42058 42.4324 2.58618C43.6028 3.75179 43.6028 5.6459 42.4324 6.8115L36.0039 13.2132V29.8231L50.452 21.5181L52.802 12.7761C53.2318 11.1825 54.8778 10.2355 56.4781 10.6635C58.0783 11.0915 59.0293 12.7306 58.5995 14.3242L57.7949 17.2928L59.3402 16.4004C60.7759 15.5717 62.6048 16.0635 63.4369 17.4932C64.269 18.9229 63.7752 20.7441 62.3396 21.5728L60.7942 22.4652L63.7752 23.2574C65.3755 23.6854 66.3265 25.3246 65.8967 26.9182C65.4669 28.5118 63.8209 29.4588 62.2207 29.0308L53.4421 26.6905L38.9941 34.9954L53.4421 43.3004Z" fill="white"/>
</svg>
