<svg width="21" height="21" viewBox="0 0 21 21" fill="none" xmlns="http://www.w3.org/2000/svg">
<path d="M10.5761 4.95953L7.16656 8.3691C7.13605 8.39957 7.11184 8.43577 7.09533 8.4756C7.07881 8.51544 7.07031 8.55814 7.07031 8.60127C7.07031 8.64439 7.07881 8.6871 7.09533 8.72693C7.11184 8.76677 7.13605 8.80296 7.16656 8.83344L12.1677 13.8346C12.1982 13.8651 12.2344 13.8893 12.2742 13.9058C12.314 13.9223 12.3567 13.9308 12.3999 13.9308C12.443 13.9308 12.4857 13.9223 12.5255 13.9058C12.5654 13.8893 12.6016 13.8651 12.632 13.8346L16.0416 10.425C16.0721 10.3945 16.0963 10.3583 16.1128 10.3185C16.1294 10.2787 16.1379 10.236 16.1379 10.1928C16.1379 10.1497 16.1294 10.107 16.1128 10.0672C16.0963 10.0273 16.0721 9.99114 16.0416 9.96067L11.0405 4.95953C11.01 4.92901 10.9738 4.90481 10.934 4.8883C10.8941 4.87178 10.8514 4.86328 10.8083 4.86328C10.7652 4.86328 10.7225 4.87178 10.6826 4.8883C10.6428 4.90481 10.6066 4.92901 10.5761 4.95953ZM15.3459 10.1871L12.3925 13.1405L7.86061 8.60045L10.814 5.65522L15.3459 10.1871Z" fill="#A1A1A1"/>
<path d="M6.82234 11.2243C6.88392 11.2859 6.96744 11.3205 7.05452 11.3205C7.1416 11.3205 7.22511 11.2859 7.28669 11.2243C7.34827 11.1628 7.38286 11.0793 7.38286 10.9922C7.38286 10.9051 7.34827 10.8216 7.28669 10.76L6.38097 9.851C6.31865 9.79432 6.23692 9.76379 6.1527 9.76571C6.06848 9.76763 5.98823 9.80187 5.92856 9.86133C5.86889 9.92079 5.83437 10.0009 5.83215 10.0851C5.82992 10.1693 5.86017 10.2512 5.91663 10.3137L6.82234 11.2243Z" fill="#A1A1A1"/>
<path d="M5.68486 12.3601C5.71538 12.3908 5.75169 12.4152 5.79168 12.4318C5.83167 12.4484 5.87455 12.457 5.91785 12.4569C5.98255 12.4567 6.04573 12.4373 6.09944 12.4012C6.15316 12.3651 6.195 12.314 6.21973 12.2542C6.24445 12.1944 6.25095 12.1286 6.2384 12.0651C6.22585 12.0017 6.19482 11.9433 6.1492 11.8974L5.2402 10.9868C5.17863 10.9252 5.09511 10.8906 5.00803 10.8906C4.92095 10.8906 4.83743 10.9252 4.77586 10.9868C4.71428 11.0484 4.67969 11.1319 4.67969 11.219C4.67969 11.306 4.71428 11.3896 4.77586 11.4511L5.68486 12.3601Z" fill="#A1A1A1"/>
<path d="M8.98745 13.2501C9.03075 13.2501 9.07363 13.2416 9.11362 13.2249C9.15361 13.2083 9.18991 13.184 9.22044 13.1533C9.28156 13.0918 9.31586 13.0086 9.31586 12.9219C9.31586 12.8352 9.28156 12.752 9.22044 12.6905L8.3098 11.7799C8.24727 11.7235 8.16543 11.6932 8.08122 11.6954C7.99702 11.6976 7.91688 11.7322 7.85742 11.7918C7.79796 11.8515 7.76373 11.9318 7.7618 12.016C7.75988 12.1002 7.79042 12.1819 7.84709 12.2443L8.75609 13.1533C8.81735 13.2149 8.90055 13.2497 8.98745 13.2501Z" fill="#A1A1A1"/>
<path d="M6.70953 12.9166C6.67902 12.947 6.65481 12.9832 6.6383 13.0231C6.62178 13.0629 6.61328 13.1056 6.61328 13.1487C6.61328 13.1919 6.62178 13.2346 6.6383 13.2744C6.65481 13.3142 6.67902 13.3504 6.70953 13.3809L7.61853 14.2899C7.64902 14.3204 7.68521 14.3446 7.72505 14.3611C7.76488 14.3776 7.80758 14.3861 7.8507 14.3861C7.89382 14.3861 7.93651 14.3776 7.97635 14.3611C8.01619 14.3446 8.05238 14.3204 8.08287 14.2899C8.11336 14.2594 8.13755 14.2232 8.15405 14.1834C8.17055 14.1435 8.17904 14.1008 8.17904 14.0577C8.17904 14.0146 8.17055 13.9719 8.15405 13.9321C8.13755 13.8922 8.11336 13.856 8.08287 13.8256L7.17387 12.9166C7.14339 12.886 7.1072 12.8618 7.06736 12.8453C7.02753 12.8288 6.98482 12.8203 6.9417 12.8203C6.89857 12.8203 6.85587 12.8288 6.81603 12.8453C6.7762 12.8618 6.74 12.886 6.70953 12.9166Z" fill="#A1A1A1"/>
<path d="M10.2441 13.7095C10.1825 13.6479 10.099 13.6133 10.0119 13.6133C9.92485 13.6133 9.84134 13.6479 9.77976 13.7095C9.71819 13.771 9.68359 13.8545 9.68359 13.9416C9.68359 14.0287 9.71819 14.1122 9.77976 14.1738L10.6904 15.0828C10.7524 15.1442 10.8363 15.1784 10.9235 15.1779C11.0107 15.1774 11.0942 15.1423 11.1556 15.0803C11.2169 15.0183 11.2511 14.9345 11.2507 14.8472C11.2502 14.76 11.2151 14.6765 11.1531 14.6152L10.2441 13.7095Z" fill="#A1A1A1"/>
<path d="M9.1061 14.8535C9.07619 14.8206 9.03991 14.7941 8.99947 14.7757C8.95902 14.7572 8.91525 14.7472 8.87081 14.7462C8.82636 14.7452 8.78218 14.7532 8.74093 14.7698C8.69969 14.7863 8.66224 14.8111 8.63086 14.8426C8.59948 14.8741 8.57483 14.9116 8.5584 14.9529C8.54197 14.9943 8.5341 15.0385 8.53527 15.0829C8.53644 15.1273 8.54663 15.1711 8.56522 15.2115C8.5838 15.2518 8.6104 15.288 8.6434 15.3178L9.5524 16.2268C9.61392 16.2878 9.69709 16.3221 9.78375 16.322C9.84695 16.3205 9.90839 16.3009 9.96068 16.2653C10.013 16.2298 10.0539 16.1799 10.0785 16.1217C10.1031 16.0634 10.1104 15.9993 10.0994 15.9371C10.0885 15.8748 10.0597 15.817 10.0167 15.7707L9.1061 14.8535Z" fill="#A1A1A1"/>
<path d="M4.5524 13.4963C4.61365 13.558 4.69685 13.5928 4.78375 13.5932C4.84893 13.5935 4.91274 13.5745 4.96706 13.5385C5.02138 13.5024 5.06373 13.451 5.08873 13.3908C5.11372 13.3306 5.12023 13.2644 5.1074 13.2005C5.09458 13.1365 5.06302 13.0779 5.01674 13.032L4.1061 12.123C4.07619 12.0901 4.03991 12.0636 3.99947 12.0452C3.95902 12.0268 3.91525 12.0167 3.87081 12.0157C3.82636 12.0147 3.78218 12.0227 3.74093 12.0393C3.69969 12.0559 3.66224 12.0807 3.63086 12.1122C3.59948 12.1436 3.57483 12.1812 3.5584 12.2225C3.54197 12.2638 3.5341 12.308 3.53527 12.3524C3.53644 12.3969 3.54663 12.4406 3.56522 12.481C3.5838 12.5214 3.6104 12.5576 3.6434 12.5873L4.5524 13.4963Z" fill="#A1A1A1"/>
<path d="M6.7098 15.5217C6.79646 15.5218 6.87963 15.4876 6.94115 15.4265C6.97167 15.3961 6.99587 15.3599 7.01238 15.32C7.0289 15.2802 7.0374 15.2375 7.0374 15.1944C7.0374 15.1512 7.0289 15.1085 7.01238 15.0687C6.99587 15.0289 6.97167 14.9927 6.94115 14.9622L6.03708 14.0532C5.9755 13.9916 5.89199 13.957 5.8049 13.957C5.71782 13.957 5.63431 13.9916 5.57273 14.0532C5.51116 14.1148 5.47656 14.1983 5.47656 14.2854C5.47656 14.3725 5.51116 14.456 5.57273 14.5175L6.48173 15.4265C6.54245 15.4868 6.62428 15.5209 6.7098 15.5217Z" fill="#A1A1A1"/>
<path d="M7.97067 15.9868C7.90909 15.9252 7.82558 15.8906 7.7385 15.8906C7.65142 15.8906 7.5679 15.9252 7.50632 15.9868C7.44475 16.0484 7.41016 16.1319 7.41016 16.219C7.41016 16.306 7.44475 16.3896 7.50632 16.4511L8.41532 17.3601C8.4458 17.3906 8.48199 17.4149 8.52183 17.4314C8.56167 17.4479 8.60437 17.4564 8.6475 17.4564C8.69062 17.4564 8.73332 17.4479 8.77316 17.4314C8.813 17.4149 8.84919 17.3906 8.87967 17.3601C8.94079 17.2987 8.9751 17.2155 8.9751 17.1288C8.9751 17.0421 8.94079 16.9589 8.87967 16.8974L7.97067 15.9868Z" fill="#A1A1A1"/>
<path d="M2.8341 13.3979C2.77177 13.3412 2.69004 13.3107 2.60582 13.3126C2.52161 13.3145 2.44135 13.3487 2.38168 13.4082C2.32201 13.4677 2.28749 13.5478 2.28527 13.632C2.28305 13.7162 2.3133 13.7981 2.36975 13.8606L7.14446 18.6353C7.17437 18.6682 7.21065 18.6946 7.25109 18.7131C7.29154 18.7315 7.33531 18.7416 7.37976 18.7426C7.4242 18.7436 7.46838 18.7356 7.50963 18.719C7.55087 18.7024 7.58832 18.6776 7.6197 18.6461C7.65108 18.6147 7.67573 18.5771 7.69216 18.5358C7.7086 18.4945 7.71646 18.4503 7.71529 18.4059C7.71412 18.3614 7.70393 18.3177 7.68534 18.2773C7.66676 18.2369 7.64016 18.2007 7.60717 18.1709L2.8341 13.3979Z" fill="#A1A1A1"/>
<path d="M18.5106 10.894L11.5766 17.8263C11.5461 17.8568 11.522 17.893 11.5055 17.9328C11.489 17.9727 11.4805 18.0154 11.4805 18.0585C11.4805 18.1016 11.489 18.1443 11.5055 18.1841C11.522 18.224 11.5461 18.2602 11.5766 18.2907C11.6071 18.3212 11.6433 18.3453 11.6832 18.3618C11.723 18.3783 11.7657 18.3868 11.8088 18.3868C11.8519 18.3868 11.8946 18.3783 11.9345 18.3618C11.9743 18.3453 12.0105 18.3212 12.041 18.2907L18.975 11.3567C19.0314 11.2941 19.0617 11.2123 19.0595 11.1281C19.0572 11.0439 19.0227 10.9638 18.963 10.9043C18.9034 10.8448 18.8231 10.8106 18.7389 10.8087C18.6547 10.8068 18.573 10.8373 18.5106 10.894Z" fill="#A1A1A1"/>
<path d="M20.9054 5.55226C20.8616 5.51163 20.8103 5.47986 20.7544 5.45873L19.7912 5.29463L19.614 4.36752C19.6011 4.30519 19.5703 4.24796 19.5254 4.2028C19.4806 4.15764 19.4235 4.1265 19.3613 4.11318L18.426 3.93761L18.2504 3.0105C18.238 2.94564 18.2063 2.88605 18.1594 2.8395C18.1126 2.79295 18.0528 2.76162 17.9879 2.74959L17.064 2.57402L16.8868 1.64034C16.8745 1.57571 16.843 1.51628 16.7965 1.46975C16.75 1.42323 16.6905 1.39176 16.6259 1.37944L15.6988 1.21042L15.5445 0.284955C15.531 0.214418 15.4981 0.149062 15.4494 0.096251C15.4189 0.065738 15.3827 0.0415317 15.3429 0.0250162C15.303 0.00850075 15.2603 0 15.2172 0C15.1741 0 15.1314 0.00850075 15.0915 0.0250162C15.0517 0.0415317 15.0155 0.065738 14.985 0.096251L14.9702 0.111019L12.7173 2.36398L12.1528 1.80443C12.0913 1.74331 12.0081 1.709 11.9214 1.709C11.8347 1.709 11.7515 1.74331 11.6901 1.80443L0.0954326 13.3958C0.0343086 13.4573 0 13.5404 0 13.6271C0 13.7138 0.0343086 13.797 0.0954326 13.8585L7.14312 20.9144C7.2046 20.9755 7.28778 21.0098 7.37448 21.0098C7.46118 21.0098 7.54436 20.9755 7.60585 20.9144L19.1972 9.31157C19.2583 9.25008 19.2926 9.1669 19.2926 9.0802C19.2926 8.9935 19.2583 8.91032 19.1972 8.84883L18.6344 8.28436L20.9021 6.01663C20.9328 5.98637 20.9573 5.95035 20.9741 5.91062C20.9909 5.8709 20.9997 5.82825 21 5.78512C21.0003 5.742 20.9921 5.69923 20.9759 5.65927C20.9596 5.61932 20.9357 5.58295 20.9054 5.55226ZM7.38269 20.2105L0.791176 13.6271L11.9214 2.49689L18.5047 9.0802L7.38269 20.2105ZM15.0014 1.01188L15.0949 1.55173C15.1074 1.61659 15.1391 1.67618 15.1859 1.72273C15.2328 1.76928 15.2926 1.80061 15.3575 1.81264L16.283 1.98985L16.4585 2.91532C16.471 2.98018 16.5027 3.03977 16.5495 3.08632C16.5963 3.13287 16.6561 3.1642 16.7211 3.17623L17.6465 3.3518L17.8221 4.27891C17.8344 4.34355 17.8659 4.40298 17.9124 4.4495C17.959 4.49603 18.0184 4.52749 18.083 4.53982L19.0101 4.71704L19.1874 5.64415C19.1994 5.70908 19.2307 5.76887 19.2773 5.81571C19.3238 5.86255 19.3834 5.89426 19.4483 5.90669L19.9865 6.00843L18.1815 7.81342L13.1816 2.82836L15.0014 1.01188Z" fill="#A1A1A1"/>
</svg>
