<svg width="22" height="22" viewBox="0 0 22 22" fill="none" xmlns="http://www.w3.org/2000/svg">
<path d="M5.2233 10.1656H8.64349C9.1832 10.1656 9.62069 9.72812 9.62069 9.18841V5.76822C9.62069 5.22851 9.1832 4.79102 8.64349 4.79102H5.2233C4.68359 4.79102 4.24609 5.22851 4.24609 5.76822V9.18841C4.24609 9.72812 4.68359 10.1656 5.2233 10.1656ZM5.2233 5.76822H8.64349V9.18841H5.2233V5.76822Z" fill="white"/>
<path d="M17.0888 4.79102H13.6686C13.1289 4.79102 12.6914 5.22851 12.6914 5.76822V9.18841C12.6914 9.72812 13.1289 10.1656 13.6686 10.1656H17.0888C17.6285 10.1656 18.066 9.72812 18.066 9.18841V5.76822C18.066 5.22851 17.6285 4.79102 17.0888 4.79102ZM17.0888 9.18841H13.6686V5.76822H17.0888V9.18841Z" fill="white"/>
<path d="M8.64349 13.2363H5.2233C4.68359 13.2363 4.24609 13.6738 4.24609 14.2135V17.6337C4.24609 18.1734 4.68359 18.6109 5.2233 18.6109H8.64349C9.1832 18.6109 9.62069 18.1734 9.62069 17.6337V14.2135C9.62069 13.6738 9.1832 13.2363 8.64349 13.2363ZM8.64349 17.6337H5.2233V14.2135H8.64349V17.6337Z" fill="white"/>
<path d="M13.9689 21.6819H20.6232C20.9059 21.6819 21.135 21.4527 21.135 21.17V14.5158C21.135 14.2331 20.9059 14.0039 20.6232 14.0039C20.3405 14.0039 20.1113 14.2331 20.1113 14.5158V20.6582H13.9689C13.6862 20.6582 13.457 20.8874 13.457 21.17C13.457 21.4527 13.6862 21.6819 13.9689 21.6819Z" fill="white"/>
<path d="M7.57408 0.950909H0.919795C0.637105 0.950909 0.407941 1.18007 0.407941 1.46276V8.11705C0.407941 8.39974 0.637105 8.62891 0.919795 8.62891C1.20249 8.62891 1.43168 8.39974 1.43168 8.11705V1.97464H7.57408C7.85677 1.97464 8.08594 1.74545 8.08594 1.46276C8.08594 1.18007 7.85677 0.950909 7.57408 0.950909Z" fill="white"/>
<path d="M13.9689 0.950909H20.6232C20.9059 0.950909 21.135 1.18007 21.135 1.46276V8.11705C21.135 8.39974 20.9059 8.62891 20.6232 8.62891C20.3405 8.62891 20.1113 8.39974 20.1113 8.11705V1.97464H13.9689C13.6862 1.97464 13.457 1.74545 13.457 1.46276C13.457 1.18007 13.6862 0.950909 13.9689 0.950909Z" fill="white"/>
<path d="M7.57408 21.6819H0.919795C0.637105 21.6819 0.407941 21.4527 0.407941 21.17V14.5158C0.407941 14.2331 0.637105 14.0039 0.919795 14.0039C1.20249 14.0039 1.43168 14.2331 1.43168 14.5158V20.6582H7.57408C7.85677 20.6582 8.08594 20.8874 8.08594 21.17C8.08594 21.4527 7.85677 21.6819 7.57408 21.6819Z" fill="white"/>
<path d="M17.4 16.4473H13.7146C13.4602 16.4473 13.2539 16.6535 13.2539 16.908C13.2539 17.1624 13.4602 17.3686 13.7146 17.3686H14.636V18.29C14.636 18.5444 14.8422 18.7507 15.0966 18.7507C15.3511 18.7507 15.5573 18.5444 15.5573 18.29V17.3686H16.9393V18.29C16.9393 18.5444 17.1456 18.7507 17.4 18.7507C17.6544 18.7507 17.8607 18.5444 17.8607 18.29V16.908C17.8607 16.6535 17.6544 16.4473 17.4 16.4473Z" fill="white"/>
<path d="M15.1164 13.0472C15.1164 12.8049 14.8709 12.6085 14.568 12.6085C14.2651 12.6085 14.0195 12.8049 14.0195 13.0472V15.2409C14.0195 15.4832 14.2651 15.6797 14.568 15.6797H17.3101C17.613 15.6797 17.8585 15.4832 17.8585 15.2409V13.0472C17.8585 12.8049 17.613 12.6085 17.3101 12.6085C17.0072 12.6085 16.7617 12.8049 16.7617 13.0472V14.8022H15.1164V13.0472Z" fill="white"/>
</svg>
