<svg width="18" height="14" viewBox="0 0 18 14" fill="none" xmlns="http://www.w3.org/2000/svg">
<path fill-rule="evenodd" clip-rule="evenodd" d="M0 10.235C0 9.99947 0.190893 9.80859 0.42637 9.80859H14.9229C15.1583 9.80859 15.3492 9.99947 15.3492 10.235C15.3492 10.4704 15.1583 10.6613 14.9229 10.6613H0.42637C0.190893 10.6613 0 10.4704 0 10.235Z" fill="#A1A1A1"/>
<path fill-rule="evenodd" clip-rule="evenodd" d="M7.6746 2.98495C7.6746 2.74947 7.48373 2.55859 7.24825 2.55859H1.70548C0.763567 2.55859 0 3.32215 0 4.26405V11.9387C0 12.8806 0.763567 13.6442 1.70548 13.6442H13.6438C14.5857 13.6442 15.3492 12.8806 15.3492 11.9387V6.66877C15.3492 6.43328 15.1583 6.24241 14.9229 6.24241C14.6874 6.24241 14.4965 6.43328 14.4965 6.66877V11.9387C14.4965 12.4096 14.1147 12.7914 13.6438 12.7914H1.70548C1.23452 12.7914 0.852736 12.4096 0.852736 11.9387V4.26405C0.852736 3.79312 1.23452 3.41134 1.70548 3.41134H7.24825C7.48373 3.41134 7.6746 3.22043 7.6746 2.98495Z" fill="#A1A1A1"/>
<path fill-rule="evenodd" clip-rule="evenodd" d="M12.9832 4.55974C12.8567 4.55974 12.7314 4.58469 12.6146 4.63307C12.4977 4.68148 12.3915 4.75244 12.3021 4.84188C12.1356 5.00839 11.8656 5.00839 11.6991 4.84188C11.5326 4.67538 11.5326 4.40542 11.6991 4.23891C11.8677 4.07026 12.0679 3.9365 12.2883 3.84527C12.5085 3.75401 12.7447 3.70703 12.9832 3.70703C13.2216 3.70703 13.4578 3.75401 13.6781 3.84527C13.8984 3.9365 14.0986 4.07026 14.2672 4.23891C14.4338 4.40542 14.4338 4.67538 14.2672 4.84188C14.1007 5.00839 13.8308 5.00839 13.6643 4.84188C13.5748 4.75244 13.4686 4.68148 13.3518 4.63307C13.2349 4.58469 13.1097 4.55974 12.9832 4.55974Z" fill="#A1A1A1"/>
<path fill-rule="evenodd" clip-rule="evenodd" d="M12.9847 2.70821C12.6149 2.70821 12.2487 2.78106 11.9071 2.92256C11.5654 3.06409 11.255 3.2715 10.9935 3.53301C10.827 3.69952 10.557 3.69952 10.3905 3.53301C10.224 3.3665 10.224 3.09652 10.3905 2.93001C10.7312 2.58935 11.1356 2.31911 11.5807 2.13476C12.0258 1.95038 12.5029 1.85547 12.9847 1.85547C13.4665 1.85547 13.9436 1.95038 14.3887 2.13476C14.8338 2.31911 15.2382 2.58935 15.5789 2.93004C15.7454 3.09652 15.7454 3.3665 15.5789 3.53301C15.4124 3.69952 15.1424 3.69952 14.9759 3.53301C14.7144 3.2715 14.404 3.06409 14.0623 2.92256C13.7207 2.78106 13.3545 2.70821 12.9847 2.70821Z" fill="#A1A1A1"/>
<path fill-rule="evenodd" clip-rule="evenodd" d="M12.9823 0.852746C11.744 0.852746 10.5565 1.34462 9.68097 2.22017C9.51447 2.38668 9.24451 2.38668 9.07801 2.22017C8.9115 2.05366 8.9115 1.78371 9.07801 1.6172C10.1135 0.581736 11.5179 0 12.9823 0C14.4467 0 15.8511 0.581736 16.8866 1.6172C17.0531 1.78371 17.0531 2.05366 16.8866 2.22017C16.7201 2.38668 16.4501 2.38668 16.2836 2.22017C15.408 1.34462 14.2205 0.852746 12.9823 0.852746Z" fill="#A1A1A1"/>
</svg>
