<svg width="19" height="34" viewBox="0 0 19 34" fill="none" xmlns="http://www.w3.org/2000/svg">
<path d="M3.27617 30.3168V32.5542C3.27617 32.752 3.35475 32.9417 3.49461 33.0816C3.63448 33.2214 3.82417 33.3 4.02197 33.3H14.8361C15.0339 33.3 15.2236 33.2214 15.3634 33.0816C15.5033 32.9417 15.5819 32.752 15.5819 32.5542V30.3168C16.474 29.8937 17.2278 29.2262 17.7558 28.3919C18.2838 27.5576 18.5644 26.5907 18.5651 25.6033V11.9328C18.566 10.5799 18.0416 9.27954 17.1025 8.30567C16.1634 7.33181 14.883 6.76052 13.5309 6.71221V4.22123H14.2171C14.7768 4.22123 15.3137 3.99886 15.7095 3.60305C16.1053 3.20723 16.3277 2.67039 16.3277 2.11062C16.3277 1.55085 16.1053 1.014 15.7095 0.618185C15.3137 0.222368 14.7768 0 14.2171 0H4.64099C4.08122 0 3.54437 0.222368 3.14856 0.618185C2.75274 1.014 2.53037 1.55085 2.53037 2.11062C2.53037 2.67039 2.75274 3.20723 3.14856 3.60305C3.54437 3.99886 4.08122 4.22123 4.64099 4.22123H5.32712V6.72339C3.9751 6.77171 2.69464 7.343 1.75555 8.31686C0.816466 9.29073 0.292107 10.5911 0.29297 11.944V25.6033C0.293612 26.5907 0.574233 27.5576 1.10227 28.3919C1.6303 29.2262 2.38409 29.8937 3.27617 30.3168ZM14.0903 31.8084H4.76777V30.768C5.01463 30.8057 5.26387 30.8256 5.51358 30.8277H13.3445C13.5942 30.8256 13.8434 30.8057 14.0903 30.768V31.8084ZM4.64099 2.72217C4.47682 2.72217 4.31937 2.65696 4.20328 2.54087C4.08719 2.42478 4.02197 2.26733 4.02197 2.10316C4.02197 1.93898 4.08719 1.78154 4.20328 1.66545C4.31937 1.54936 4.47682 1.48414 4.64099 1.48414H14.2171C14.3812 1.48414 14.5387 1.54936 14.6548 1.66545C14.7709 1.78154 14.8361 1.93898 14.8361 2.10316C14.8361 2.26733 14.7709 2.42478 14.6548 2.54087C14.5387 2.65696 14.3812 2.72217 14.2171 2.72217H4.64099ZM8.68323 5.70538V6.70475H6.81873V4.22123H12.0393V6.71221H10.1748V5.71283L8.68323 5.70538ZM1.78457 11.9328C1.78457 10.9438 2.17745 9.99533 2.87677 9.29601C3.5761 8.59668 4.52458 8.20381 5.51358 8.20381H13.3445C14.3335 8.20381 15.282 8.59668 15.9813 9.29601C16.6806 9.99533 17.0735 10.9438 17.0735 11.9328V25.6033C17.0735 26.5923 16.6806 27.5408 15.9813 28.2401C15.282 28.9395 14.3335 29.3323 13.3445 29.3323H5.51358C4.52458 29.3323 3.5761 28.9395 2.87677 28.2401C2.17745 27.5408 1.78457 26.5923 1.78457 25.6033V11.9328Z" fill="#7E7E7E"/>
<path d="M9.42919 24.4146C10.0514 24.4097 10.6666 24.2822 11.2396 24.0395C11.8125 23.7967 12.332 23.4434 12.7684 22.9998C13.2047 22.5562 13.5494 22.0309 13.7826 21.454C14.0159 20.8771 14.1331 20.2599 14.1277 19.6377C14.1277 17.1878 10.3987 13.2723 9.96244 12.8323C9.81908 12.6931 9.62714 12.6152 9.42733 12.6152C9.22752 12.6152 9.03557 12.6931 8.89222 12.8323C8.46711 13.2984 4.73065 17.2027 4.73065 19.6377C4.72524 20.2599 4.84251 20.8771 5.07575 21.454C5.309 22.0309 5.65365 22.5562 6.09 22.9998C6.52635 23.4434 7.04586 23.7967 7.61881 24.0395C8.19177 24.2822 8.80695 24.4097 9.42919 24.4146ZM9.42919 22.0243C9.09788 22.0243 8.78014 21.8927 8.54586 21.6584C8.31159 21.4241 8.17998 21.1064 8.17998 20.7751C8.17998 20.432 8.77662 19.7496 9.42919 19.2014C10.0818 19.7496 10.6784 20.432 10.6784 20.7751C10.6789 20.9394 10.6469 21.1023 10.5844 21.2543C10.5218 21.4062 10.4299 21.5444 10.3138 21.6608C10.1978 21.7772 10.0599 21.8695 9.90811 21.9326C9.7563 21.9956 9.59356 22.028 9.42919 22.028V22.0243ZM9.42919 14.4581C10.8425 16.0243 12.6361 18.4183 12.6361 19.6489C12.6394 20.3133 12.4419 20.9632 12.0693 21.5134C12.1355 21.2767 12.1694 21.0321 12.17 20.7862C12.17 19.3729 10.2458 17.9336 9.86176 17.6613C9.73545 17.5714 9.58425 17.5231 9.42919 17.5231C9.27414 17.5231 9.12294 17.5714 8.99663 17.6613C8.62373 17.9336 6.68837 19.3729 6.68837 20.7862C6.69 21.0283 6.72385 21.2691 6.78906 21.5022C6.41653 20.952 6.21896 20.3021 6.22225 19.6377C6.22225 18.4221 8.0159 16.028 9.42919 14.4618V14.4581Z" fill="#A72E81"/>
</svg>
