<svg width="17" height="18" viewBox="0 0 17 18" fill="none" xmlns="http://www.w3.org/2000/svg">
<path fill-rule="evenodd" clip-rule="evenodd" d="M6.68496 0.757224C7.64239 -0.204557 9.17449 -0.2469 10.1586 0.611693L10.3136 0.756202L10.9245 1.36715C11.1344 1.57602 11.4096 1.7048 11.7025 1.73373L11.8289 1.73996H12.7027C14.066 1.73996 15.1807 2.80602 15.2586 4.14981L15.263 4.30022V5.1732C15.263 5.47053 15.3655 5.75637 15.5505 5.98365L15.6347 6.07734L16.2457 6.68833C17.2075 7.6458 17.2505 9.17694 16.3693 10.186L16.2544 10.3093L15.6353 10.9284C15.427 11.1372 15.2982 11.4126 15.2692 11.7052L15.263 11.8314V12.7061C15.263 14.0693 14.197 15.1833 12.8531 15.2612L12.7027 15.2655H11.8289C11.5326 15.2655 11.2464 15.3685 11.019 15.5539L10.9253 15.6384L10.3151 16.2477C9.35867 17.2107 7.82643 17.2534 6.817 16.3719L6.68598 16.2493L6.07641 15.6397C5.86527 15.43 5.5895 15.3008 5.29751 15.2718L5.17152 15.2655H4.29684C2.93415 15.2655 1.81964 14.2 1.74178 12.8565L1.73743 12.7061V11.8314C1.73743 11.5356 1.63432 11.2491 1.44895 11.0221L1.36453 10.9287L0.754951 10.3182C-0.207762 9.36095 -0.250466 7.82867 0.631024 6.82025L0.746024 6.697L1.36324 6.07894C1.57315 5.86753 1.70221 5.59228 1.73119 5.29957L1.73743 5.1732V4.30022L1.74178 4.14983C1.81677 2.85595 2.85308 1.81932 4.1465 1.7443L4.29684 1.73996H5.17152C5.46773 1.73996 5.754 1.6372 5.98099 1.4526L6.0745 1.36853L6.68496 0.757224ZM9.43925 1.68346L9.40538 1.65199C8.93424 1.18298 8.18973 1.15552 7.6854 1.5689L7.58788 1.65746L6.9748 2.27138C6.53513 2.70794 5.95361 2.96897 5.33968 3.00944L5.17153 3.01497H4.29686C3.62741 3.01497 3.07683 3.52852 3.01773 4.18327L3.01247 4.30021V5.17318C3.01247 5.79299 2.78755 6.38898 2.38184 6.85485L2.26675 6.97859L1.64864 7.59755C1.17958 8.06874 1.15227 8.81307 1.56679 9.31802L1.65558 9.41567L2.26697 10.0279C2.70422 10.4662 2.96627 11.0487 3.00691 11.6631L3.01247 11.8314V12.7061C3.01247 13.3759 3.52563 13.9261 4.17999 13.9852L4.29686 13.9905H5.17153C5.79017 13.9905 6.38667 14.2156 6.85264 14.6214L6.9764 14.7365L7.59124 15.3513C8.06573 15.8232 8.81027 15.8506 9.31477 15.4361L9.41232 15.3473L10.0251 14.7354C10.4643 14.2983 11.0461 14.0366 11.6606 13.996L11.8289 13.9905H12.7027C13.3731 13.9905 13.9236 13.4775 13.9827 12.823L13.988 12.7061V11.8314C13.988 11.2119 14.213 10.6143 14.6182 10.1505L14.7331 10.0274L15.3515 9.40899C15.8206 8.93727 15.8477 8.1933 15.4338 7.68853L15.3452 7.59092L14.7315 6.9773C14.2947 6.53736 14.0339 5.95643 13.9935 5.34162L13.988 5.17318V4.30021C13.988 3.63004 13.4745 3.07935 12.8197 3.02023L12.7027 3.01497H11.8289C11.2091 3.01497 10.6123 2.79024 10.1475 2.38481L10.024 2.26979L9.43925 1.68346ZM10.2312 11.14C10.3502 11.259 10.5117 11.327 10.6817 11.327C10.8517 11.327 11.0132 11.259 11.1322 11.14C11.1917 11.0805 11.2427 11.004 11.2767 10.9275C11.3022 10.851 11.3192 10.7754 11.3192 10.6895C11.3192 10.6045 11.3022 10.5195 11.2767 10.443C11.2427 10.3665 11.1917 10.2985 11.1322 10.239C10.8942 10.001 10.4692 10.001 10.2312 10.239C10.1717 10.2985 10.1292 10.3665 10.0952 10.443C10.0612 10.5195 10.0442 10.6045 10.0442 10.6895C10.0442 10.7754 10.0612 10.851 10.0952 10.9275C10.1292 11.004 10.1717 11.0805 10.2312 11.14ZM6.31208 6.95823C6.22707 6.95823 6.15057 6.94038 6.07407 6.90638C5.99757 6.87238 5.92107 6.83072 5.86156 6.77122C5.80206 6.70322 5.75956 6.63522 5.72556 6.55872C5.69156 6.48136 5.67456 6.40571 5.67456 6.32071C5.67456 6.23486 5.69156 6.15071 5.72556 6.0742C5.75956 5.9977 5.80206 5.9212 5.86156 5.8702C6.10807 5.63134 6.52458 5.63134 6.76259 5.8702C6.88159 5.98835 6.94959 6.15071 6.94959 6.32071C6.94959 6.40571 6.94109 6.48136 6.90709 6.55872C6.87309 6.63522 6.82209 6.70322 6.76259 6.77122C6.70309 6.83072 6.63508 6.87238 6.55858 6.90638C6.48208 6.94038 6.39708 6.95823 6.31208 6.95823ZM11.1353 5.86715C10.8863 5.61818 10.4827 5.61818 10.2337 5.86715L5.8646 10.2363L5.80288 10.3078C5.6177 10.5573 5.63827 10.9115 5.8646 11.1378C6.11357 11.3868 6.51722 11.3868 6.76619 11.1378L11.1353 6.76873L11.197 6.69723C11.3822 6.44765 11.3616 6.09348 11.1353 5.86715Z" fill="white"/>
</svg>
