<svg width="19" height="20" viewBox="0 0 19 20" fill="none" xmlns="http://www.w3.org/2000/svg">
<path fill-rule="evenodd" clip-rule="evenodd" d="M17.839 5.65899C18.509 6.17799 18.92 6.94899 18.99 7.78799L19 7.98899V16.098C19 18.188 17.349 19.888 15.28 19.998H13.29C12.339 19.979 11.57 19.239 11.5 18.309L11.49 18.168V15.309C11.49 14.998 11.259 14.739 10.95 14.688L10.86 14.678H8.189C7.87 14.688 7.61 14.918 7.57 15.218L7.56 15.309V18.159C7.56 18.218 7.549 18.288 7.54 18.338L7.53 18.359L7.519 18.428C7.4 19.279 6.7 19.928 5.83 19.989L5.7 19.998H3.91C1.82 19.998 0.11 18.359 0 16.298V7.98899C0.009 7.13799 0.38 6.34799 1 5.79799L7.23 0.787988C8.5 -0.221012 10.28 -0.261012 11.589 0.667988L11.75 0.787988L17.839 5.65899ZM17.6006 16.2578L17.6116 16.0978V7.99776C17.6006 7.56876 17.4216 7.16776 17.1116 6.86876L16.9816 6.75776L10.8816 1.87776C10.1216 1.26776 9.04163 1.23876 8.24162 1.76776L8.09062 1.87776L2.01062 6.77876C1.66163 7.03776 1.45162 7.42776 1.40163 7.83776L1.39062 7.99776V16.0978C1.39062 17.4278 2.43062 18.5178 3.75163 18.5978H5.70162C5.92162 18.5978 6.11163 18.4488 6.14062 18.2388L6.16162 18.0588L6.17163 18.0078V15.3088C6.17163 14.2388 6.99162 13.3688 8.04163 13.2878H10.8616C11.9306 13.2878 12.8006 14.1088 12.8816 15.1588V18.1678C12.8816 18.3778 13.0316 18.5588 13.2316 18.5978H15.0906C16.4306 18.5978 17.5206 17.5688 17.6006 16.2578Z" fill="white"/>
</svg>
