<svg width="16" height="20" viewBox="0 0 16 20" fill="none" xmlns="http://www.w3.org/2000/svg">
<path fill-rule="evenodd" clip-rule="evenodd" d="M7.7614 0C4.91629 0 2.60986 2.31626 2.60986 5.1735C2.60986 8.03075 4.91629 10.347 7.7614 10.347C10.6065 10.347 12.9129 8.03075 12.9129 5.1735C12.9129 2.31626 10.6065 0 7.7614 0ZM7.7614 1.40377C9.83451 1.40377 11.5151 3.09152 11.5151 5.17347C11.5151 7.25542 9.83451 8.94317 7.7614 8.94317C5.68829 8.94317 4.00771 7.25542 4.00771 5.17347C4.00771 3.09152 5.68829 1.40377 7.7614 1.40377ZM5.65338 12.4324C4.89923 12.4847 4.13693 12.5924 3.38502 12.7535C1.93375 13.0525 0.772706 13.6497 0.278536 14.6423C0.0921486 15.0305 -0.00156065 15.4461 1.96578e-05 15.8669C-0.000538606 16.2846 0.092412 16.7008 0.272115 17.0815C0.746612 18.0626 1.77242 18.6178 3.15757 18.9256L3.4057 18.9774C4.1372 19.1424 4.89973 19.2536 5.66736 19.3057C5.73274 19.3249 5.88856 19.3427 6.05863 19.3514L6.19852 19.3566C6.27044 19.3583 6.35208 19.3587 6.4737 19.3587C7.57706 19.4194 8.72089 19.4017 9.85941 19.3048C10.4661 19.2633 11.0769 19.184 11.6826 19.0677L12.1358 18.9736C13.6316 18.6785 14.7516 18.1174 15.2423 17.0826C15.6061 16.3143 15.6061 15.4227 15.2424 14.6548C14.753 13.6225 13.6472 13.0661 12.1245 12.7524C11.527 12.6248 10.92 12.5305 10.3085 12.4702L9.86153 12.4324C8.46151 12.3089 7.0534 12.3089 5.65338 12.4324ZM9.73921 13.8308L9.75151 13.8318C10.4532 13.8812 11.1506 13.9797 11.8387 14.1266C12.9698 14.3596 13.7374 14.7459 13.9802 15.258C14.1631 15.6442 14.1631 16.0929 13.9801 16.4794C13.7531 16.9579 13.0638 17.3277 12.0674 17.5536L11.8492 17.5998C11.1476 17.7563 10.4525 17.8572 9.75278 17.9052C8.66709 17.9975 7.58783 18.0142 6.51129 17.956L6.12961 17.9494C6.02366 17.944 5.93436 17.9338 5.85161 17.9172C5.19634 17.8677 4.6067 17.7895 4.0342 17.676L3.69236 17.6036C2.55778 17.3812 1.78342 16.9933 1.53235 16.4742C1.4445 16.288 1.39757 16.0779 1.39785 15.8652C1.39707 15.6537 1.44337 15.4483 1.53327 15.261C1.77738 14.7708 2.598 14.3487 3.67132 14.1276C4.36435 13.9791 5.06144 13.8806 5.76285 13.8318C7.09433 13.7145 8.42058 13.7145 9.73921 13.8308Z" fill="#ABABAB"/>
</svg>
