<svg width="20" height="19" viewBox="0 0 20 19" fill="none" xmlns="http://www.w3.org/2000/svg">
<path fill-rule="evenodd" clip-rule="evenodd" d="M5.81204 0H14.188C17.3978 0 20 2.66116 20 5.94374V6.66158C20.0007 6.67508 20.0011 6.68868 20.0011 6.70236C20.0011 6.71605 20.0007 6.72965 20 6.74315V11.9957C20.0007 12.0092 20.0011 12.0228 20.0011 12.0365C20.0011 12.0502 20.0007 12.0638 20 12.0773V13.0563C20 16.3388 17.3978 19 14.188 19H5.81204C2.60219 19 0 16.3388 0 13.0563V5.94374C0 2.66116 2.60219 0 5.81204 0ZM18.546 5.94356V5.95911H15.3513L15.1682 5.96426C13.411 6.0624 12.0156 7.54909 12.0156 9.36944C12.0168 11.253 13.5093 12.7786 15.3508 12.7798H18.546V13.0561C18.546 15.5177 16.5946 17.5133 14.1875 17.5133H5.81159C3.40453 17.5133 1.45312 15.5177 1.45312 13.0561V5.94356C1.45312 3.48195 3.40453 1.48633 5.81159 1.48633H14.1875C16.5946 1.48633 18.546 3.48195 18.546 5.94356ZM18.546 7.44562V11.2933H15.3513L15.2042 11.2874C14.2338 11.2102 13.4698 10.3811 13.4692 9.36899C13.4692 8.30738 14.3118 7.44627 15.3517 7.44562L18.546 7.44562ZM16.5212 9.30869C16.5212 8.8982 16.1958 8.56543 15.7945 8.56543H15.4924L15.3938 8.57222C15.039 8.62143 14.7656 8.9324 14.7656 9.30869C14.7656 9.71918 15.091 10.0519 15.4924 10.0519H15.7945L15.8931 10.0452C16.2478 9.99594 16.5212 9.68497 16.5212 9.30869ZM11.08 5.24033C11.08 4.82984 10.7546 4.49707 10.3532 4.49707H5.12132L5.0227 4.50386C4.66795 4.55307 4.39453 4.86405 4.39453 5.24033C4.39453 5.65082 4.71993 5.98359 5.12132 5.98359H10.3532L10.4518 5.9768C10.8065 5.92758 11.08 5.61661 11.08 5.24033Z" fill="#ABABAB"/>
</svg>
