<svg width="221" height="57" viewBox="0 0 221 57" fill="none" xmlns="http://www.w3.org/2000/svg">
<path d="M1.91578 45V40.019L22.3188 16.4549H1.91578V11.4739H29.0241V16.4549L8.62101 40.019H29.0241V45H1.91578ZM49.4679 21.0528H54.7842L41.6611 56.9736H36.3688L40.7032 45L32.1061 21.0528H37.5422L43.1937 38.175L49.4679 21.0528ZM59.7933 45V21.0528H64.7743V23.5912C65.6045 22.6013 66.6262 21.8191 67.8395 21.2443C69.0529 20.6696 70.362 20.3822 71.7669 20.3822C72.6609 20.3822 73.547 20.502 74.425 20.7414L72.4374 25.7704C71.8148 25.5309 71.1922 25.4112 70.5695 25.4112C69.5159 25.4112 68.55 25.6746 67.6719 26.2014C66.7938 26.7123 66.0914 27.4068 65.5646 28.2848C65.0377 29.1629 64.7743 30.1367 64.7743 31.2064V45H59.7933ZM87.5646 45.6226C85.3614 45.6226 83.3499 45.0559 81.5299 43.9224C79.7259 42.7889 78.281 41.2722 77.1954 39.3724C76.1258 37.4566 75.591 35.3413 75.591 33.0264C75.591 31.2702 75.9023 29.6339 76.5249 28.1172C77.1475 26.5846 78.0017 25.2435 79.0873 24.0941C80.1888 22.9286 81.466 22.0186 82.9188 21.3641C84.3716 20.7095 85.9202 20.3822 87.5646 20.3822C89.7677 20.3822 91.7713 20.949 93.5754 22.0825C95.3953 23.216 96.8402 24.7406 97.9098 26.6564C98.9954 28.5722 99.5382 30.6955 99.5382 33.0264C99.5382 34.7665 99.2269 36.395 98.6043 37.9116C97.9816 39.4283 97.1195 40.7693 96.018 41.9348C94.9324 43.0842 93.6632 43.9862 92.2104 44.6408C90.7735 45.2953 89.2249 45.6226 87.5646 45.6226ZM87.5646 40.6416C88.8897 40.6416 90.0791 40.2904 91.1327 39.5879C92.1864 38.8855 93.0166 37.9595 93.6232 36.81C94.2459 35.6446 94.5572 34.3834 94.5572 33.0264C94.5572 31.6374 94.2379 30.3603 93.5993 29.1948C92.9767 28.0294 92.1385 27.1034 91.0848 26.4169C90.0312 25.7145 88.8577 25.3633 87.5646 25.3633C86.2555 25.3633 85.0661 25.7145 83.9965 26.4169C82.9428 27.1194 82.1046 28.0533 81.482 29.2188C80.8753 30.3842 80.572 31.6534 80.572 33.0264C80.572 34.4472 80.8913 35.7324 81.5299 36.8819C82.1685 38.0314 83.0146 38.9493 84.0683 39.6358C85.1379 40.3063 86.3034 40.6416 87.5646 40.6416ZM132.792 45.6226C130.461 45.6226 128.289 45.1756 126.278 44.2816C124.282 43.3716 122.534 42.1183 121.033 40.5219C119.549 38.9094 118.383 37.0495 117.537 34.9422C116.707 32.8348 116.292 30.5917 116.292 28.213C116.292 25.7065 116.739 23.3996 117.633 21.2922C118.527 19.1849 119.748 17.3569 121.297 15.8083C122.845 14.2438 124.61 13.0304 126.589 12.1683C128.585 11.3062 130.676 10.8752 132.863 10.8752C135.338 10.8752 137.717 11.4499 140 12.5994C142.283 13.7488 144.27 15.473 145.963 17.772L141.508 20.1907C140.359 18.7538 139.018 17.6682 137.485 16.9338C135.969 16.1994 134.412 15.8323 132.816 15.8323C131.267 15.8323 129.798 16.1516 128.409 16.7901C127.02 17.4128 125.791 18.2908 124.721 19.4243C123.652 20.5419 122.806 21.859 122.183 23.3756C121.576 24.8763 121.273 26.5127 121.273 28.2848C121.273 29.9931 121.568 31.5975 122.159 33.0982C122.766 34.5989 123.596 35.916 124.65 37.0495C125.719 38.1671 126.948 39.0451 128.337 39.6837C129.742 40.3223 131.243 40.6416 132.839 40.6416C134.021 40.6416 135.154 40.45 136.24 40.0669C137.326 39.6837 138.331 39.1409 139.257 38.4385C140.199 37.72 141.021 36.8659 141.724 35.8761C142.426 34.8863 142.985 33.7847 143.4 32.5714H136.288V28.1651H149.243C149.275 30.5598 148.86 32.8109 147.998 34.9182C147.152 37.0256 145.971 38.8855 144.454 40.4979C142.953 42.0944 141.205 43.3476 139.209 44.2576C137.214 45.1676 135.075 45.6226 132.792 45.6226ZM154.643 21.0528H159.624V45H154.643V21.0528ZM157.181 17.5804C156.415 17.5804 155.777 17.333 155.266 16.838C154.755 16.3431 154.499 15.7205 154.499 14.9702C154.499 14.2358 154.755 13.6211 155.266 13.1262C155.777 12.6153 156.407 12.3599 157.158 12.3599C157.892 12.3599 158.515 12.6153 159.025 13.1262C159.536 13.6211 159.792 14.2358 159.792 14.9702C159.792 15.7205 159.536 16.3431 159.025 16.838C158.53 17.333 157.916 17.5804 157.181 17.5804ZM172.466 15.6167V21.0528H179.219V26.0338H172.466V45H167.485V26.0338H164.635V21.0528H167.485V15.6167C167.485 14.3076 167.804 13.1182 168.443 12.0486C169.082 10.963 169.936 10.1009 171.005 9.46229C172.091 8.8237 173.296 8.5044 174.621 8.5044C175.579 8.5044 176.513 8.69598 177.423 9.07913C178.333 9.46229 179.147 10.053 179.866 10.8512L176.298 14.3715C176.122 14.0841 175.875 13.8686 175.555 13.7249C175.252 13.5653 174.941 13.4854 174.621 13.4854C174.031 13.4854 173.52 13.693 173.089 14.1081C172.674 14.5231 172.466 15.026 172.466 15.6167ZM197.5 26.0338H192.471L192.447 45H187.466L187.49 26.0338H183.682V21.0528H187.49L187.466 13.5333H192.447L192.471 21.0528H197.5V26.0338ZM209.602 45.455C208.341 45.3752 207.111 45.1197 205.914 44.6887C204.717 44.2576 203.663 43.6749 202.753 42.9405C201.859 42.1902 201.189 41.3121 200.742 40.3063L204.98 38.4863C205.188 38.9174 205.547 39.3405 206.058 39.7556C206.585 40.1706 207.199 40.5139 207.902 40.7853C208.604 41.0407 209.339 41.1684 210.105 41.1684C210.855 41.1684 211.55 41.0647 212.188 40.8571C212.843 40.6336 213.378 40.2984 213.793 39.8513C214.208 39.4043 214.415 38.8695 214.415 38.2469C214.415 37.5444 214.176 37.0016 213.697 36.6185C213.234 36.2193 212.651 35.916 211.949 35.7085C211.246 35.5009 210.544 35.3014 209.841 35.1098C208.277 34.7586 206.84 34.2796 205.531 33.673C204.238 33.0503 203.208 32.2601 202.442 31.3022C201.675 30.3283 201.292 29.1389 201.292 27.734C201.292 26.2014 201.707 24.8763 202.538 23.7588C203.368 22.6253 204.453 21.7552 205.794 21.1485C207.151 20.5419 208.596 20.2386 210.129 20.2386C212.045 20.2386 213.801 20.6457 215.397 21.4599C216.994 22.2741 218.215 23.3916 219.061 24.8125L215.11 27.1593C214.87 26.6804 214.511 26.2493 214.032 25.8662C213.553 25.483 213.01 25.1797 212.404 24.9562C211.797 24.7167 211.167 24.581 210.512 24.5491C209.698 24.5171 208.939 24.6129 208.237 24.8364C207.551 25.044 207 25.3792 206.585 25.8422C206.17 26.3052 205.962 26.8959 205.962 27.6143C205.962 28.3168 206.209 28.8436 206.704 29.1948C207.199 29.5301 207.822 29.8015 208.572 30.009C209.339 30.2166 210.121 30.4481 210.919 30.7035C212.34 31.1505 213.673 31.7013 214.918 32.3559C216.164 32.9944 217.169 33.7847 217.936 34.7266C218.702 35.6686 219.069 36.818 219.037 38.175C219.037 39.6757 218.582 40.9928 217.672 42.1263C216.778 43.2598 215.613 44.1219 214.176 44.7126C212.739 45.3033 211.214 45.5508 209.602 45.455Z" fill="#373737"/>
</svg>
